# WaveFront *.obj file (generated by Autodesk ATF)

mtllib board_part.mtl

g Solid1

v -380.999985 0.000000 0.000000
v -380.999985 0.000000 380.999985
v -380.999985 126.999998 0.000000
v -380.999985 126.999998 380.999985
v 0.000000 0.000000 0.000000
v 0.000000 0.000000 380.999985
v 0.000000 126.999998 0.000000
v 0.000000 126.999998 380.999985
vt 0.000000 0.000000 0.000000
vt 38.099998 0.000000 0.000000
vt 0.000000 12.700000 0.000000
vt 0.000000 12.700000 0.000000
vt 38.099998 0.000000 0.000000
vt 38.099998 12.700000 0.000000
vt 0.000000 0.000000 0.000000
vt 38.099998 0.000000 0.000000
vt 0.000000 12.700000 0.000000
vt 0.000000 12.700000 0.000000
vt 38.099998 0.000000 0.000000
vt 38.099998 12.700000 0.000000
vt 0.000000 0.000000 0.000000
vt 38.099998 0.000000 0.000000
vt 0.000000 12.700000 0.000000
vt 0.000000 12.700000 0.000000
vt 38.099998 0.000000 0.000000
vt 38.099998 12.700000 0.000000
vt 0.000000 0.000000 0.000000
vt 38.099998 0.000000 0.000000
vt 0.000000 12.700000 0.000000
vt 0.000000 12.700000 0.000000
vt 38.099998 0.000000 0.000000
vt 38.099998 12.700000 0.000000
vt -19.049999 -19.049999 0.000000
vt 19.049999 -19.049999 0.000000
vt -19.049999 19.049999 0.000000
vt -19.049999 19.049999 0.000000
vt 19.049999 -19.049999 0.000000
vt 19.049999 19.049999 0.000000
vt -19.049999 -19.049999 0.000000
vt 19.049999 -19.049999 0.000000
vt -19.049999 19.049999 0.000000
vt -19.049999 19.049999 0.000000
vt 19.049999 -19.049999 0.000000
vt 19.049999 19.049999 0.000000
vn 0.000000 0.000000 -0.100000
vn 0.000000 0.000000 -0.100000
vn 0.000000 0.000000 -0.100000
vn 0.000000 0.000000 -0.100000
vn 0.000000 0.000000 -0.100000
vn 0.000000 0.000000 -0.100000
vn 0.100000 0.000000 0.000000
vn 0.100000 0.000000 0.000000
vn 0.100000 0.000000 0.000000
vn 0.100000 0.000000 0.000000
vn 0.100000 0.000000 0.000000
vn 0.100000 0.000000 0.000000
vn 0.000000 0.000000 0.100000
vn 0.000000 0.000000 0.100000
vn 0.000000 0.000000 0.100000
vn 0.000000 0.000000 0.100000
vn 0.000000 0.000000 0.100000
vn 0.000000 0.000000 0.100000
vn -0.100000 0.000000 0.000000
vn -0.100000 0.000000 0.000000
vn -0.100000 0.000000 0.000000
vn -0.100000 0.000000 0.000000
vn -0.100000 0.000000 0.000000
vn -0.100000 0.000000 0.000000
vn 0.000000 0.100000 0.000000
vn 0.000000 0.100000 0.000000
vn 0.000000 0.100000 0.000000
vn 0.000000 0.100000 0.000000
vn 0.000000 0.100000 0.000000
vn 0.000000 0.100000 0.000000
vn 0.000000 -0.100000 0.000000
vn 0.000000 -0.100000 0.000000
vn 0.000000 -0.100000 0.000000
vn 0.000000 -0.100000 0.000000
vn 0.000000 -0.100000 0.000000
vn 0.000000 -0.100000 0.000000
usemtl 191,191,191
f 5/1/1 1/2/2 7/3/3
f 7/4/4 1/5/5 3/6/6
f 6/7/7 5/8/8 8/9/9
f 8/10/10 5/11/11 7/12/12
f 2/13/13 6/14/14 4/15/15
f 4/16/16 6/17/17 8/18/18
f 1/19/19 2/20/20 3/21/21
f 3/22/22 2/23/23 4/24/24
f 3/25/25 4/26/26 7/27/27
f 7/28/28 4/29/29 8/30/30
f 2/31/31 1/32/32 6/33/33
f 6/34/34 1/35/35 5/36/36

# 8 vertices
# 36 texture params
# 36 normals
# 12 facets

# 1 groups
